#N canvas 839 267 518 436 10;
#X obj 74 21 inlet~;
#X obj 74 283 delwrite~ \$0-del 100;
#X obj 184 228 vd~ \$0-del;
#X obj 184 372 outlet~;
#X obj 184 197 lop~ 70;
#X obj 328 204 block~ 1;
#X obj 184 175 *~;
#X obj 324 63 *~ 0.5;
#X obj 324 21 inlet~ pluck position;
#X obj 199 21 inlet~ freq;
#X obj 184 107 sig~ 1000;
#X obj 184 128 /~;
#X connect 0 0 1 0;
#X connect 2 0 3 0;
#X connect 4 0 2 0;
#X connect 6 0 4 0;
#X connect 7 0 6 1;
#X connect 8 0 7 0;
#X connect 9 0 11 1;
#X connect 10 0 11 0;
#X connect 11 0 6 0;
