#N canvas 142 253 556 507 10;
#X obj 239 48 inlet~;
#X obj 182 395 delwrite~ \$0-tube 100;
#X obj 307 191 vd~ \$0-tube;
#X obj 307 53 inlet frequency;
#X obj 307 169 lop~ 70;
#X obj 35 51 block~ 1;
#X floatatom 347 147 5 0 0 0 - - -;
#X obj 307 213 rzero~ -1;
#X obj 307 235 *~ 0.5;
#X obj 327 279 outlet~;
#N canvas 163 165 443 263 reedtable 0;
#X obj 23 62 inlet~ deltaV;
#X obj 23 232 outlet~;
#X obj 23 144 *~ -0.3;
#X obj 23 166 +~ 0.7;
#X obj 23 188 min~ 1;
#X obj 23 210 max~ -1;
#X text 75 145 < slope;
#X text 74 162 < offset;
#X obj 187 50 * 0.0078125;
#X obj 187 71 * 0.26;
#X obj 187 92 - 0.44;
#X floatatom 187 113 5 0 0 0 - - -;
#X obj 187 29 r \$0-slope-rec;
#X connect 0 0 2 0;
#X connect 2 0 3 0;
#X connect 3 0 4 0;
#X connect 4 0 5 0;
#X connect 5 0 1 0;
#X connect 8 0 9 0;
#X connect 9 0 10 0;
#X connect 10 0 11 0;
#X connect 11 0 2 1;
#X connect 12 0 8 0;
#X restore 182 329 pd reedtable;
#X obj 239 285 *~ 1;
#X obj 182 307 -~;
#X obj 182 351 *~;
#X obj 182 373 +~;
#X obj 307 75 expr 500 / $f1;
#X obj 307 257 *~ -0.95;
#X msg 307 96 \$1 200;
#X obj 307 117 line~;
#X connect 0 0 11 0;
#X connect 2 0 7 0;
#X connect 3 0 15 0;
#X connect 4 0 2 0;
#X connect 7 0 8 0;
#X connect 8 0 16 0;
#X connect 10 0 13 0;
#X connect 11 0 12 1;
#X connect 11 0 14 1;
#X connect 12 0 10 0;
#X connect 12 0 13 1;
#X connect 13 0 14 0;
#X connect 14 0 1 0;
#X connect 15 0 6 0;
#X connect 15 0 17 0;
#X connect 16 0 9 0;
#X connect 16 0 12 0;
#X connect 17 0 18 0;
#X connect 18 0 4 0;
