#N canvas 165 66 727 682 10;
#N canvas 154 285 450 300 pan 0;
#X obj 62 39 inlet~;
#X obj 62 201 *~;
#X obj 142 201 *~;
#X obj 62 223 outlet~;
#X obj 142 223 outlet~;
#X obj 77 158 sqrt~;
#X obj 172 58 sig~;
#X obj 157 114 sig~ 1;
#X obj 157 136 -~;
#X obj 157 158 sqrt~;
#X obj 172 36 inlet panning;
#X obj 172 80 lop~ 50;
#X connect 0 0 1 0;
#X connect 0 0 2 0;
#X connect 1 0 3 0;
#X connect 2 0 4 0;
#X connect 5 0 1 1;
#X connect 6 0 11 0;
#X connect 7 0 8 0;
#X connect 8 0 9 0;
#X connect 9 0 2 1;
#X connect 10 0 6 0;
#X connect 11 0 5 0;
#X connect 11 0 8 1;
#X restore 187 505 pd pan;
#X floatatom 220 485 5 0 0 0 - - -;
#X obj 202 295 line~;
#X obj 187 399 *~;
#N canvas 0 23 876 394 env 0;
#X obj 84 57 inlet duration;
#X obj 184 57 inlet amp;
#X obj 84 219 outlet~;
#X obj 420 224 * 0.5;
#X msg 420 246 0 \, 1 \$1 \, 0 \$1 \$1;
#X obj 420 268 vline~;
#X obj 420 290 expr~ pow($v1 \, $f2);
#X obj 579 259 loadbang;
#X msg 579 281 0.5;
#X obj 420 312 *~;
#X text 465 226 dur/2;
#X text 609 281 < Later \, add slope parameter if desired;
#X obj 84 77 t f b;
#X msg 54 99 0;
#X obj 84 121 line~;
#X msg 84 99 1 \$1;
#X obj 84 143 *~ 2048;
#X text 138 144 window size;
#X obj 84 165 tabread4~ envelope;
#X obj 84 187 *~;
#X text 121 98 dur;
#X connect 0 0 12 0;
#X connect 1 0 19 1;
#X connect 3 0 4 0;
#X connect 4 0 5 0;
#X connect 5 0 6 0;
#X connect 6 0 9 0;
#X connect 7 0 8 0;
#X connect 8 0 6 1;
#X connect 12 0 15 0;
#X connect 12 1 13 0;
#X connect 13 0 14 0;
#X connect 14 0 16 0;
#X connect 15 0 14 0;
#X connect 16 0 18 0;
#X connect 18 0 19 0;
#X connect 19 0 2 0;
#X restore 157 343 pd env;
#X floatatom 157 203 5 0 0 2 start - -;
#X floatatom 214 203 5 0 0 2 duration - -;
#N canvas 58 405 450 300 samples 0;
#X obj 89 46 inlet start;
#X obj 179 46 inlet duration;
#X obj 89 198 pack f f f;
#X obj 89 220 outlet;
#X obj 89 148 t f f;
#N canvas 0 22 344 358 transposition 0;
#X obj 87 119 / 12;
#X obj 99 206 pow;
#X obj 87 143 t b f;
#X msg 87 166 2;
#X obj 99 256 outlet;
#X obj 138 210 * 44.1;
#X obj 99 234 * 44100;
#X obj 87 89 f;
#X obj 212 89 t b f;
#X obj 212 67 inlet duration;
#X obj 102 67 r \$0-trans;
#X text 67 19 transposes the sample by # of halfsteps;
#X connect 0 0 2 0;
#X connect 1 0 6 0;
#X connect 2 0 3 0;
#X connect 2 1 1 1;
#X connect 3 0 1 0;
#X connect 5 0 6 1;
#X connect 6 0 4 0;
#X connect 7 0 0 0;
#X connect 8 0 7 0;
#X connect 8 1 5 0;
#X connect 9 0 8 0;
#X connect 10 0 7 1;
#X restore 179 131 pd transposition;
#X obj 117 172 +;
#X connect 0 0 4 0;
#X connect 1 0 2 2;
#X connect 1 0 5 0;
#X connect 2 0 3 0;
#X connect 4 0 2 0;
#X connect 4 1 6 0;
#X connect 5 0 6 1;
#X connect 6 0 2 1;
#X restore 157 222 pd samples;
#X msg 202 273 \$1 \, \$2 \$3;
#X obj 157 319 f;
#X obj 300 485 pack f f f;
#X obj 300 462 f;
#X obj 300 439 t b f;
#X msg 300 517 \$1 \, \$2 \$3;
#X obj 300 539 line;
#X obj 300 64 inlet;
#X obj 300 415 r \$0-dur;
#X obj 321 138 s \$0-dur;
#X obj 214 171 r \$0-dur;
#X obj 157 244 t b a;
#X obj 300 86 t a b;
#X msg 554 103 1;
#X obj 594 53 r \$0-dur;
#X obj 554 155 ==;
#X obj 554 177 sel 1;
#X obj 594 75 t f b;
#X obj 594 97 del;
#X msg 594 119 0;
#X msg 624 119 1;
#X msg 554 199 grain already in use;
#X obj 554 221 print ERROR;
#X text 165 28 name start dur amp trans panStart panEnd;
#X obj 300 116 unpack s f f f f f f;
#X msg 227 326 set \$1;
#X obj 378 138 s \$0-trans;
#X obj 187 421 hip~ 5;
#X obj 187 627 throw~ \$1-outL;
#X obj 287 627 throw~ \$1-outR;
#X obj 202 369 tabread4~ \$1-soundfile;
#X connect 0 0 36 0;
#X connect 0 1 37 0;
#X connect 1 0 0 1;
#X connect 2 0 38 0;
#X connect 3 0 35 0;
#X connect 4 0 3 0;
#X connect 5 0 7 0;
#X connect 6 0 7 1;
#X connect 6 0 9 1;
#X connect 7 0 19 0;
#X connect 8 0 2 0;
#X connect 9 0 4 0;
#X connect 10 0 13 0;
#X connect 11 0 10 0;
#X connect 12 0 11 0;
#X connect 12 1 10 2;
#X connect 13 0 14 0;
#X connect 14 0 1 0;
#X connect 15 0 20 0;
#X connect 16 0 12 0;
#X connect 18 0 6 0;
#X connect 19 0 9 0;
#X connect 19 1 8 0;
#X connect 20 0 32 0;
#X connect 20 1 21 0;
#X connect 21 0 23 0;
#X connect 22 0 25 0;
#X connect 23 0 24 0;
#X connect 24 0 29 0;
#X connect 25 0 26 0;
#X connect 25 1 28 0;
#X connect 26 0 27 0;
#X connect 27 0 23 1;
#X connect 28 0 23 1;
#X connect 29 0 30 0;
#X connect 32 0 33 0;
#X connect 32 1 5 0;
#X connect 32 2 17 0;
#X connect 32 3 4 1;
#X connect 32 4 34 0;
#X connect 32 5 11 1;
#X connect 32 6 10 1;
#X connect 35 0 0 0;
#X connect 38 0 3 1;
