#N canvas 83 106 783 706 10;
#X declare -path presets/;
#N canvas 749 49 464 527 setstrikeposition 0;
#X obj 112 46 inlet;
#X msg 224 98 1;
#X obj 224 120 atan;
#X obj 224 142 * 4;
#X obj 224 74 loadbang;
#X obj 112 178 *;
#X text 263 139 < Pi;
#X floatatom 61 284 5 0 0 0 - - -;
#X obj 61 303 sin;
#X obj 61 325 * 0.12;
#X obj 61 417 pack f f f;
#X obj 112 200 t f f f;
#X obj 61 439 outlet;
#X obj 131 285 * 3.9;
#X obj 131 307 + 0.05;
#X obj 131 329 sin;
#X obj 131 351 * -0.03;
#X obj 225 279 * 11;
#X obj 225 301 + -0.05;
#X obj 225 323 sin;
#X obj 225 345 * 0.11;
#X connect 0 0 5 0;
#X connect 1 0 2 0;
#X connect 2 0 3 0;
#X connect 3 0 5 1;
#X connect 4 0 1 0;
#X connect 5 0 11 0;
#X connect 7 0 8 0;
#X connect 8 0 9 0;
#X connect 9 0 10 0;
#X connect 10 0 12 0;
#X connect 11 0 7 0;
#X connect 11 1 13 0;
#X connect 11 2 17 0;
#X connect 13 0 14 0;
#X connect 14 0 15 0;
#X connect 15 0 16 0;
#X connect 16 0 10 1;
#X connect 17 0 18 0;
#X connect 18 0 19 0;
#X connect 19 0 20 0;
#X connect 20 0 10 2;
#X restore 140 301 pd setstrikeposition;
#X obj 140 259 / 127;
#X floatatom 140 280 5 0 0 0 - - -;
#X obj 336 330 *~ 0;
#X obj 336 309 rpole~;
#X obj 336 351 s~ \$0-imp;
#X obj 379 172 / 127;
#X floatatom 379 193 5 0 0 0 - - -;
#X obj 379 234 -;
#X obj 379 213 swap 1;
#X obj 89 444 outlet~;
#X obj 336 271 catch~ \$0-exciter;
#X obj 224 189 s \$0-pitch;
#X obj 140 322 unpack f f f;
#X obj 575 111 declare -path presets/;
#X text 505 70 SINGLE INSTANCE OF MODAL SYNTH;
#X obj 379 151 r \$1-velocity;
#X obj 235 424 r \$0-slider-pitch;
#X obj 61 12 inlet;
#X obj 89 343 mode 1 \$0 \$1;
#X obj 89 363 mode 2 \$0 \$1;
#X obj 89 383 mode 3 \$0 \$1;
#X obj 89 403 mode 4 \$0 \$1;
#X obj 89 423 mode 5 \$0 \$1;
#N canvas 646 80 645 666 implement 0;
#X obj 120 72 inlet;
#X obj 120 93 t b f;
#X obj 223 138 s \$0-slider-pitch;
#X obj 44 157 impulse~;
#X obj 79 227 noise~;
#X obj 79 358 *~;
#X obj 94 269 f 1;
#X msg 94 290 0.2 \, 0 \$1;
#X obj 94 311 line~;
#X msg 293 208 511.519;
#X obj 293 309 * 1;
#X obj 109 249 + 1;
#X obj 308 245 / 127;
#X obj 308 266 * 2.5;
#X obj 308 287 max 0.01;
#X msg 293 330 0 \, 225588 \$1;
#X obj 293 351 line~;
#X obj 293 372 tabread4~ \$1-residual;
#X obj 293 393 *~ 1;
#X obj 79 379 *~ 0.2;
#X obj 103 617 throw~ \$0-exciter;
#X obj 157 371 / 127;
#X floatatom 157 392 5 0 0 0 - - -;
#X obj 79 493 *~;
#X obj 293 452 *~;
#X obj 109 442 lop~ 50;
#X obj 308 426 lop~ 50;
#X obj 94 332 *~;
#X obj 94 417 sig~ 1;
#X obj 94 468 -~;
#X obj 157 350 r \$1-mallet-rec;
#X obj 450 131 r \$1-hardness-rec;
#X connect 0 0 1 0;
#X connect 1 0 3 0;
#X connect 1 0 6 0;
#X connect 1 0 9 0;
#X connect 1 1 2 0;
#X connect 4 0 5 0;
#X connect 5 0 19 0;
#X connect 6 0 7 0;
#X connect 7 0 8 0;
#X connect 8 0 27 0;
#X connect 8 0 27 1;
#X connect 9 0 10 0;
#X connect 10 0 15 0;
#X connect 11 0 6 1;
#X connect 12 0 13 0;
#X connect 13 0 14 0;
#X connect 14 0 10 1;
#X connect 15 0 16 0;
#X connect 16 0 17 0;
#X connect 17 0 18 0;
#X connect 18 0 24 0;
#X connect 19 0 23 0;
#X connect 21 0 22 0;
#X connect 22 0 25 0;
#X connect 22 0 26 0;
#X connect 23 0 20 0;
#X connect 24 0 20 0;
#X connect 25 0 29 1;
#X connect 26 0 24 1;
#X connect 27 0 5 1;
#X connect 28 0 29 0;
#X connect 29 0 23 1;
#X connect 30 0 21 0;
#X connect 31 0 11 0;
#X connect 31 0 12 0;
#X restore 61 100 pd implement;
#X obj 140 238 r \$1-position-rec;
#X connect 0 0 13 0;
#X connect 1 0 2 0;
#X connect 2 0 0 0;
#X connect 3 0 5 0;
#X connect 4 0 3 0;
#X connect 6 0 7 0;
#X connect 7 0 9 0;
#X connect 7 0 3 1;
#X connect 8 0 4 1;
#X connect 9 0 8 0;
#X connect 9 1 8 1;
#X connect 11 0 4 0;
#X connect 13 0 19 2;
#X connect 13 1 20 2;
#X connect 13 2 21 2;
#X connect 16 0 6 0;
#X connect 17 0 19 1;
#X connect 17 0 20 1;
#X connect 17 0 21 1;
#X connect 17 0 22 1;
#X connect 17 0 23 1;
#X connect 18 0 24 0;
#X connect 19 0 20 0;
#X connect 20 0 21 0;
#X connect 21 0 22 0;
#X connect 22 0 23 0;
#X connect 23 0 10 0;
#X connect 25 0 1 0;
#X coords 0 706 1 705 200 150 0;
