#N canvas 568 214 640 664 10;
#X obj 108 475 biquad~;
#X obj 176 139 unpack f f f;
#X obj 232 527 *~;
#X obj 462 91 inlet amp;
#X obj 125 190 moses 0;
#X obj 125 211 * -1;
#X obj 143 375 * \$1;
#X obj 108 49 r~ \$2-imp;
#X obj 232 576 +~;
#X obj 232 605 outlet~;
#X obj 351 93 inlet~;
#X obj 41 378 * \$1;
#X obj 41 357 max 0.06;
#X obj 41 335 * 2;
#X obj 41 314 / 127;
#X obj 41 409 spigot;
#X obj 143 419 spigot;
#X obj 143 354 mtof;
#X obj 74 388 < 0;
#X obj 176 398 > 0;
#X obj 86 161 t b b f;
#X obj 247 451 lop~ 80;
#X obj 143 446 setresonance;
#X obj 408 113 * 127;
#X obj 295 203 +, f 5;
#X obj 295 79 change;
#X obj 295 100 t b f;
#X floatatom 295 224 5 0 0 0 - - -;
#X obj 408 92 inlet;
#X msg 41 68 1;
#X obj 41 89 metro 100;
#X obj 41 110 snapshot~;
#X floatatom 41 131 5 0 0 0 - - -;
#X obj 295 50 r \$3-pitch;
#X obj 176 118 r \$3-mode\$1;
#X connect 0 0 2 0;
#X connect 1 0 18 0;
#X connect 1 0 19 0;
#X connect 1 0 20 0;
#X connect 1 1 22 1;
#X connect 1 2 21 0;
#X connect 2 0 8 0;
#X connect 3 0 21 0;
#X connect 4 0 5 0;
#X connect 4 1 6 1;
#X connect 5 0 11 1;
#X connect 6 0 16 0;
#X connect 7 0 0 0;
#X connect 7 0 31 0;
#X connect 8 0 9 0;
#X connect 10 0 8 1;
#X connect 11 0 15 0;
#X connect 12 0 11 0;
#X connect 13 0 12 0;
#X connect 14 0 13 0;
#X connect 15 0 22 0;
#X connect 16 0 22 0;
#X connect 17 0 6 0;
#X connect 18 0 15 1;
#X connect 19 0 16 1;
#X connect 20 0 14 0;
#X connect 20 1 6 0;
#X connect 20 2 4 0;
#X connect 21 0 2 1;
#X connect 22 0 0 0;
#X connect 23 0 24 0;
#X connect 24 0 17 0;
#X connect 24 0 27 0;
#X connect 25 0 26 0;
#X connect 26 0 24 0;
#X connect 26 1 24 1;
#X connect 28 0 23 0;
#X connect 29 0 30 0;
#X connect 30 0 31 0;
#X connect 31 0 32 0;
#X connect 33 0 14 0;
#X connect 33 0 25 0;
#X connect 34 0 1 0;
