#N canvas 481 71 912 718 10;
#X text 395 338 gains;
#X msg 397 360 1;
#X obj 189 599 setresonance;
#X obj 179 621 biquad~;
#X obj 115 443 *~ 1;
#X text 145 445 bamboo gains;
#X msg 466 381 0.0791812;
#X text 483 365 current gain;
#X obj 115 465 *~ 1;
#X obj 478 333 loadbang;
#X obj 284 264 loadbang;
#N canvas 0 22 450 300 varyfreq 0;
#X obj 122 75 inlet bang;
#X obj 122 97 t b b;
#X obj 122 119 f 2800;
#X obj 181 103 noise~;
#X obj 181 125 snapshot~;
#X obj 181 147 * 0.2;
#X obj 181 169 + 1;
#X obj 122 201 *;
#X obj 122 223 outlet;
#X connect 0 0 1 0;
#X connect 1 0 2 0;
#X connect 1 1 4 0;
#X connect 2 0 7 0;
#X connect 3 0 4 0;
#X connect 4 0 5 0;
#X connect 5 0 6 0;
#X connect 6 0 7 1;
#X connect 7 0 8 0;
#X restore 459 170 pd varyfreq;
#X obj 50 643 outlet~;
#X obj 225 86 inlet;
#X obj 50 97 inlet~;
#X obj 156 121 noise~;
#X obj 156 193 *~;
#X obj 177 171 line~;
#X msg 177 149 \$1 \, 0 1;
#X text 457 143 TODO for later;
#X obj 483 98 bng 15 250 50 0 empty empty empty 17 7 0 10 -262144 -1
-1;
#X obj 459 192 print;
#X obj 225 108 t f b;
#N canvas 0 22 450 300 varyfreq 0;
#X obj 122 75 inlet bang;
#X obj 122 97 t b b;
#X obj 181 103 noise~;
#X obj 181 125 snapshot~;
#X obj 181 147 * 0.2;
#X obj 181 169 + 1;
#X obj 122 201 *;
#X obj 122 223 outlet;
#X obj 122 119 f \$1;
#X connect 0 0 1 0;
#X connect 1 0 8 0;
#X connect 1 1 3 0;
#X connect 2 0 3 0;
#X connect 3 0 4 0;
#X connect 4 0 5 0;
#X connect 5 0 6 1;
#X connect 6 0 7 0;
#X connect 8 0 6 0;
#X restore 169 493 pd varyfreq;
#X text 643 68 radii;
#X msg 644 87 0.96;
#X msg 569 71 3200;
#X obj 169 515 spigot;
#X obj 229 530 f \$1;
#X obj 279 530 f \$2;
#X text 327 34 Arg: 1) frequency \; 2) radius \; 3) vary freq (true
or false);
#X obj 250 359 f \$3;
#X obj 250 381 sel 0;
#X msg 250 403 0;
#X msg 277 423 1;
#X obj 298 581 pack;
#X obj 284 286 t b b;
#X connect 1 0 4 1;
#X connect 2 0 3 0;
#X connect 3 0 12 0;
#X connect 4 0 8 0;
#X connect 6 0 8 1;
#X connect 8 0 3 0;
#X connect 9 0 6 0;
#X connect 10 0 36 0;
#X connect 11 0 21 0;
#X connect 13 0 22 0;
#X connect 14 0 12 0;
#X connect 15 0 16 0;
#X connect 16 0 4 0;
#X connect 17 0 16 1;
#X connect 18 0 17 0;
#X connect 20 0 11 0;
#X connect 22 0 18 0;
#X connect 22 1 23 0;
#X connect 23 0 27 0;
#X connect 27 0 2 0;
#X connect 28 0 2 0;
#X connect 28 0 35 0;
#X connect 29 0 2 1;
#X connect 29 0 35 1;
#X connect 31 0 32 0;
#X connect 32 0 33 0;
#X connect 32 1 34 0;
#X connect 33 0 27 1;
#X connect 34 0 27 1;
#X connect 36 0 28 0;
#X connect 36 1 31 0;
#X connect 36 1 29 0;
