#N canvas 128 359 450 300 10;
#X obj 96 76 inlet;
#X obj 96 98 bng 15 250 50 0 empty empty empty 17 7 0 10 -262144 -1
-1;
#X obj 96 118 random;
#X text 198 29 arg: min max;
#X obj 208 80 loadbang;
#X obj 208 102 t b b;
#X obj 208 166 -;
#X obj 245 124 f \$1;
#X obj 208 124 f \$2;
#X obj 96 180 +;
#X obj 96 202 outlet;
#X obj 277 60 inlet min;
#X obj 366 56 inlet max;
#X connect 0 0 1 0;
#X connect 1 0 2 0;
#X connect 2 0 9 0;
#X connect 4 0 5 0;
#X connect 5 0 8 0;
#X connect 5 1 7 0;
#X connect 6 0 2 1;
#X connect 7 0 6 1;
#X connect 7 0 9 1;
#X connect 8 0 6 0;
#X connect 9 0 10 0;
#X connect 11 0 8 1;
#X connect 12 0 7 1;
