#N canvas 353 378 538 414 10;
#X obj 43 29 inlet bang;
#X obj 86 127 noise~;
#X obj 86 148 snapshot~;
#X obj 86 169 * 0.5;
#X obj 86 190 + 0.5;
#X text 191 53 Args: max max max max max max;
#X obj 98 315 pack f f f f f f;
#X obj 43 50 t b b b b b b;
#X obj 86 211 * \$1;
#X obj 156 127 noise~;
#X obj 156 148 snapshot~;
#X obj 156 169 * 0.5;
#X obj 156 190 + 0.5;
#X obj 226 127 noise~;
#X obj 226 148 snapshot~;
#X obj 226 169 * 0.5;
#X obj 226 190 + 0.5;
#X obj 296 127 noise~;
#X obj 296 148 snapshot~;
#X obj 296 169 * 0.5;
#X obj 296 190 + 0.5;
#X obj 366 127 noise~;
#X obj 366 148 snapshot~;
#X obj 366 169 * 0.5;
#X obj 366 190 + 0.5;
#X obj 436 127 noise~;
#X obj 436 148 snapshot~;
#X obj 436 169 * 0.5;
#X obj 436 190 + 0.5;
#X obj 156 211 * \$2;
#X obj 226 211 * \$3;
#X obj 296 211 * \$4;
#X obj 366 211 * \$5;
#X obj 436 211 * \$6;
#X obj 98 336 outlet;
#X obj 86 232 + 0.5;
#X obj 86 253 int;
#X obj 156 232 + 0.5;
#X obj 156 253 int;
#X obj 226 232 + 0.5;
#X obj 226 253 int;
#X obj 296 232 + 0.5;
#X obj 296 253 int;
#X obj 366 232 + 0.5;
#X obj 366 253 int;
#X obj 436 232 + 0.5;
#X obj 436 253 int;
#X connect 0 0 7 0;
#X connect 1 0 2 0;
#X connect 2 0 3 0;
#X connect 3 0 4 0;
#X connect 4 0 8 0;
#X connect 6 0 34 0;
#X connect 7 0 2 0;
#X connect 7 1 10 0;
#X connect 7 2 14 0;
#X connect 7 3 18 0;
#X connect 7 4 22 0;
#X connect 7 5 26 0;
#X connect 8 0 35 0;
#X connect 9 0 10 0;
#X connect 10 0 11 0;
#X connect 11 0 12 0;
#X connect 12 0 29 0;
#X connect 13 0 14 0;
#X connect 14 0 15 0;
#X connect 15 0 16 0;
#X connect 16 0 30 0;
#X connect 17 0 18 0;
#X connect 18 0 19 0;
#X connect 19 0 20 0;
#X connect 20 0 31 0;
#X connect 21 0 22 0;
#X connect 22 0 23 0;
#X connect 23 0 24 0;
#X connect 24 0 32 0;
#X connect 25 0 26 0;
#X connect 26 0 27 0;
#X connect 27 0 28 0;
#X connect 28 0 33 0;
#X connect 29 0 37 0;
#X connect 30 0 39 0;
#X connect 31 0 41 0;
#X connect 32 0 43 0;
#X connect 33 0 45 0;
#X connect 35 0 36 0;
#X connect 36 0 6 0;
#X connect 37 0 38 0;
#X connect 38 0 6 1;
#X connect 39 0 40 0;
#X connect 40 0 6 2;
#X connect 41 0 42 0;
#X connect 42 0 6 3;
#X connect 43 0 44 0;
#X connect 44 0 6 4;
#X connect 45 0 46 0;
#X connect 46 0 6 5;
