#N canvas 324 113 607 538 10;
#X obj 51 49 inlet frequency;
#X obj 264 68 inlet radius;
#X obj 264 160 max 0;
#X obj 165 86 loadbang;
#X msg 66 113 1;
#X obj 66 135 atan;
#X obj 66 157 * 8;
#X obj 51 181 *;
#X obj 66 209 samplerate~;
#X obj 51 233 /;
#X obj 51 255 cos;
#X obj 51 307 *;
#X obj 66 281 * 2;
#X obj 264 182 pow 2;
#X obj 264 204 * -1;
#X obj 332 280 t b f;
#X msg 332 302 0.5;
#X obj 332 354 -;
#X obj 347 326 * 0.5;
#X obj 332 376 * -1;
#X obj 76 481 outlet biquad coefficients;
#X obj 165 111 t b b b;
#X obj 365 188 f \$1;
#X text 333 118 arg: 1=normalize \, 0=don't normalize;
#X obj 332 258 spigot;
#X obj 76 459 pack f f 1 0 0;
#X text 177 13 This calculates coefficients for biquad filter;
#X connect 0 0 7 0;
#X connect 1 0 2 0;
#X connect 2 0 12 0;
#X connect 2 0 13 0;
#X connect 3 0 21 0;
#X connect 4 0 5 0;
#X connect 5 0 6 0;
#X connect 6 0 7 1;
#X connect 7 0 9 0;
#X connect 8 0 9 1;
#X connect 9 0 10 0;
#X connect 10 0 11 0;
#X connect 11 0 25 0;
#X connect 12 0 11 1;
#X connect 13 0 14 0;
#X connect 13 0 24 0;
#X connect 14 0 25 1;
#X connect 15 0 16 0;
#X connect 15 1 18 0;
#X connect 16 0 17 0;
#X connect 17 0 19 0;
#X connect 17 0 25 2;
#X connect 18 0 17 1;
#X connect 19 0 25 4;
#X connect 21 1 22 0;
#X connect 21 2 4 0;
#X connect 21 2 8 0;
#X connect 22 0 24 1;
#X connect 24 0 15 0;
#X connect 25 0 20 0;
