#N canvas 233 292 734 515 10;
#X obj 124 283 delwrite~ \$0-del 100;
#X obj 234 178 vd~ \$0-del;
#X obj 234 372 outlet~;
#X obj 234 147 lop~ 70;
#X obj 234 200 rzero~ -1;
#X text 295 199 y[n] = x[n] + x[n-1];
#X obj 234 222 *~ 0.5;
#X text 283 246 < dampening;
#X text 282 223 < moving average filter;
#X obj 580 56 block~ 1;
#X obj 249 21 inlet~ freq;
#X obj 457 113 *~ 5e-06;
#X obj 457 135 +~ 0.995;
#X obj 457 157 min~ 0.99999;
#X obj 234 244 *~;
#X obj 124 21 inlet~ exciter;
#X obj 234 92 sig~ 1000;
#X obj 234 113 /~;
#X obj 367 68 / 127;
#X obj 367 131 * -1;
#X obj 367 89 * 0.2;
#X obj 367 110 + 0.8;
#X obj 367 47 r \$1-damp-rec;
#X connect 1 0 4 0;
#X connect 3 0 1 0;
#X connect 4 0 6 0;
#X connect 6 0 14 0;
#X connect 10 0 11 0;
#X connect 10 0 17 1;
#X connect 11 0 12 0;
#X connect 12 0 13 0;
#X connect 13 0 14 1;
#X connect 14 0 0 0;
#X connect 14 0 2 0;
#X connect 15 0 0 0;
#X connect 16 0 17 0;
#X connect 17 0 3 0;
#X connect 18 0 20 0;
#X connect 19 0 4 1;
#X connect 20 0 21 0;
#X connect 21 0 19 0;
#X connect 22 0 18 0;
