#N canvas 271 51 941 752 10;
#X obj 291 183 noise~;
#X obj 291 264 *~;
#X obj 316 230 line~;
#X msg 316 209 4 \, 0 1;
#X obj 474 83 tgl 15 0 empty empty empty 17 7 0 10 -262144 -1 -1 0
1;
#X obj 474 103 metro 200;
#X obj 157 562 output~;
#X obj 516 63 hsl 128 15 50 500 0 0 empty empty empty -2 -8 0 10 -262144
-1 -1 0 0;
#X floatatom 513 83 5 0 0 0 - - -;
#X obj 474 189 random 1000;
#X obj 474 210 / 1000;
#X obj 474 252 sig~;
#X obj 474 231 * 0.2;
#X obj 291 502 rev3~ 85 90;
#X obj 291 296 pluck;
#X obj 68 92 modal~;
#X obj 37 308 shake~;
#X obj 37 329 output~;
#X obj 597 120 shake;
#X obj 597 275 output~;
#X obj 758 8 noise~;
#X obj 758 89 *~;
#X obj 783 55 line~;
#X msg 783 34 4 \, 0 1;
#X floatatom 46 223 5 0 0 0 - - -;
#X floatatom 100 257 5 0 0 0 - - -;
#X obj 134 75 vsl 15 128 0 127 0 0 empty empty empty 0 -9 0 10 -262144
-1 -1 0 1;
#X obj 184 83 vsl 15 128 0 127 0 0 empty empty empty 0 -9 0 10 -262144
-1 -1 0 1;
#X connect 0 0 1 0;
#X connect 1 0 14 0;
#X connect 2 0 1 1;
#X connect 3 0 2 0;
#X connect 4 0 5 0;
#X connect 5 0 3 0;
#X connect 5 0 9 0;
#X connect 7 0 5 1;
#X connect 7 0 8 0;
#X connect 9 0 10 0;
#X connect 10 0 12 0;
#X connect 11 0 14 1;
#X connect 12 0 11 0;
#X connect 13 0 6 0;
#X connect 13 1 6 1;
#X connect 14 0 13 0;
#X connect 14 0 13 1;
#X connect 14 0 6 0;
#X connect 14 0 6 1;
#X connect 16 0 17 0;
#X connect 16 0 17 1;
#X connect 18 0 19 0;
#X connect 18 0 19 1;
#X connect 20 0 21 0;
#X connect 21 0 18 0;
#X connect 22 0 21 1;
#X connect 23 0 22 0;
#X connect 24 0 16 0;
#X connect 25 0 16 1;
#X connect 26 0 24 0;
#X connect 27 0 25 0;
#X coords 0 752 1 751 200 100 0;
