#N canvas 337 23 941 752 10;
#X obj 291 174 noise~;
#X obj 291 255 *~;
#X obj 316 221 line~;
#X msg 316 200 4 \, 0 1;
#X obj 474 74 tgl 15 0 empty empty empty 17 7 0 10 -262144 -1 -1 0
1;
#X obj 474 94 metro 200;
#X obj 157 553 output~;
#X obj 516 54 hsl 128 15 50 500 0 0 empty empty empty -2 -8 0 10 -262144
-1 -1 0 0;
#X floatatom 513 74 5 0 0 0 - - -;
#X obj 474 180 random 1000;
#X obj 474 201 / 1000;
#X obj 474 243 sig~;
#X obj 474 222 * 0.2;
#X obj 291 493 rev3~ 85 90;
#X obj 291 287 pluck;
#X obj 531 632 output~;
#X msg 535 468 init;
#X obj 446 495 vsl 15 128 0 127 0 0 empty empty empty 0 -9 0 10 -262144
-1 -1 4800 1;
#X obj 760 435 vsl 15 128 0 127 0 0 empty empty empty 0 -9 0 10 -262144
-1 -1 10300 1;
#X floatatom 446 631 5 0 0 0 - - -;
#X msg 577 473 rand;
#X floatatom 760 571 5 0 0 0 - - -;
#X obj 547 608 pluck~, f 15;
#X obj 621 449 bng 15 250 50 0 empty empty empty 17 7 0 10 -262144
-1 -1;
#X msg 636 488 double;
#X msg 646 508 single;
#X obj 628 349 tgl 15 0 empty empty empty 17 7 0 10 -262144 -1 -1 0
1;
#X obj 628 369 metro 200;
#X text 433 474 pitch;
#X text 757 406 position;
#X connect 0 0 1 0;
#X connect 1 0 14 0;
#X connect 2 0 1 1;
#X connect 3 0 2 0;
#X connect 4 0 5 0;
#X connect 5 0 3 0;
#X connect 5 0 9 0;
#X connect 7 0 5 1;
#X connect 7 0 8 0;
#X connect 9 0 10 0;
#X connect 10 0 12 0;
#X connect 11 0 14 1;
#X connect 12 0 11 0;
#X connect 13 0 6 0;
#X connect 13 1 6 1;
#X connect 14 0 13 0;
#X connect 14 0 13 1;
#X connect 14 0 6 0;
#X connect 14 0 6 1;
#X connect 16 0 22 0;
#X connect 17 0 19 0;
#X connect 17 0 22 0;
#X connect 18 0 21 0;
#X connect 18 0 22 3;
#X connect 20 0 22 0;
#X connect 22 0 15 0;
#X connect 22 0 15 1;
#X connect 23 0 22 0;
#X connect 24 0 22 0;
#X connect 25 0 22 0;
#X connect 26 0 27 0;
#X connect 27 0 23 0;
#X coords 0 752 1 751 200 100 0;
