#N canvas 337 23 941 752 10;
#X obj 291 183 noise~;
#X obj 291 264 *~;
#X obj 316 230 line~;
#X msg 316 209 4 \, 0 1;
#X obj 474 83 tgl 15 0 empty empty empty 17 7 0 10 -262144 -1 -1 0
1;
#X obj 474 103 metro 200;
#X obj 157 562 output~;
#X obj 516 63 hsl 128 15 50 500 0 0 empty empty empty -2 -8 0 10 -262144
-1 -1 0 0;
#X floatatom 513 83 5 0 0 0 - - -;
#X obj 474 189 random 1000;
#X obj 474 210 / 1000;
#X obj 474 252 sig~;
#X obj 474 231 * 0.2;
#X obj 291 502 rev3~ 85 90;
#X obj 291 296 pluck;
#X obj 531 641 output~;
#X msg 535 477 init;
#X obj 446 504 vsl 15 128 0 127 0 0 empty empty empty 0 -9 0 10 -262144
-1 -1 0 1;
#X obj 760 444 vsl 15 128 0 127 0 0 empty empty empty 0 -9 0 10 -262144
-1 -1 8200 1;
#X floatatom 446 640 5 0 0 0 - - -;
#X msg 577 482 rand;
#X floatatom 760 580 5 0 0 0 - - -;
#X obj 547 617 pluck~, f 15;
#X obj 621 458 bng 15 250 50 0 empty empty empty 17 7 0 10 -262144
-1 -1;
#X msg 636 497 double;
#X msg 646 517 single;
#X obj 628 358 tgl 15 0 empty empty empty 17 7 0 10 -262144 -1 -1 0
1;
#X obj 628 378 metro 200;
#X text 433 483 pitch;
#X text 757 415 position;
#X obj 68 92 modal~;
#X obj 37 308 shake~;
#X obj 37 329 output~;
#X obj 597 120 shake;
#X obj 597 275 output~;
#X obj 758 8 noise~;
#X obj 758 89 *~;
#X obj 783 55 line~;
#X msg 783 34 4 \, 0 1;
#X floatatom 46 223 5 0 0 0 - - -;
#X floatatom 100 257 5 0 0 0 - - -;
#X obj 844 476 vsl 15 128 0 127 0 0 empty empty empty 0 -9 0 10 -262144
-1 -1 12700 1;
#X floatatom 844 612 5 0 0 0 - - -;
#X connect 0 0 1 0;
#X connect 1 0 14 0;
#X connect 2 0 1 1;
#X connect 3 0 2 0;
#X connect 4 0 5 0;
#X connect 5 0 3 0;
#X connect 5 0 9 0;
#X connect 7 0 5 1;
#X connect 7 0 8 0;
#X connect 9 0 10 0;
#X connect 10 0 12 0;
#X connect 11 0 14 1;
#X connect 12 0 11 0;
#X connect 13 0 6 0;
#X connect 13 1 6 1;
#X connect 14 0 13 0;
#X connect 14 0 13 1;
#X connect 14 0 6 0;
#X connect 14 0 6 1;
#X connect 16 0 22 0;
#X connect 17 0 19 0;
#X connect 17 0 22 0;
#X connect 18 0 21 0;
#X connect 18 0 22 3;
#X connect 20 0 22 0;
#X connect 22 0 15 0;
#X connect 22 0 15 1;
#X connect 23 0 22 0;
#X connect 24 0 22 0;
#X connect 25 0 22 0;
#X connect 26 0 27 0;
#X connect 27 0 23 0;
#X connect 31 0 32 0;
#X connect 31 0 32 1;
#X connect 33 0 34 0;
#X connect 33 0 34 1;
#X connect 35 0 36 0;
#X connect 36 0 33 0;
#X connect 37 0 36 1;
#X connect 38 0 37 0;
#X connect 39 0 31 0;
#X connect 40 0 31 1;
#X connect 41 0 42 0;
#X connect 41 0 22 4;
#X coords 0 752 1 751 200 100 0;
