#N canvas 453 73 987 740 10;
#X declare -path abs/;
#X obj 369 378 pack f 20;
#X obj 369 400 line~;
#X obj 369 468 *~;
#X obj 384 424 noise~;
#X obj 384 446 *~ 0.2;
#X obj 354 490 +~;
#X floatatom 204 442 5 0 0 0 - - -;
#X obj 204 461 mtof;
#X obj 369 518 osc~ 5.735;
#X obj 354 572 *~;
#X obj 354 594 +~;
#X obj 369 539 *~ 0.01;
#X obj 354 622 tube;
#X floatatom 447 516 5 0 0 0 - - -;
#X obj 768 135 declare -path abs/;
#X obj 404 165 loadbang;
#X obj 404 186 f \$0;
#X obj 369 354 / 127;
#X obj 354 643 outlet~;
#X obj 636 235 list prepend \$0;
#X obj 440 423 * 0.0078125;
#X text 518 422 < (1/128);
#X obj 91 52 route float rand init;
#X obj 204 421 r \$0-pitch-rec;
#X obj 369 310 r \$0-pressure-rec;
#X obj 91 98 s \$0-pressure-rec;
#X obj 91 29 inlet pressure;
#X obj 283 26 inlet pitch;
#X obj 283 47 s \$0-pitch-rec;
#X obj 201 294 s \$0-vel-rec;
#X obj 453 26 inlet noise;
#X obj 453 47 s \$0-noise-rec;
#X obj 440 402 r \$0-noise-rec;
#X obj 93 293 r \$0-slope-rec;
#X text 89 272 reedtable slope?;
#X text 68 194 TODO: velocity?;
#X msg 404 207 \; \$1-pitch-rec 60 \; \$1-noise-rec 26 \; \$1-slope-rec
69 \;;
#X obj 636 214 randomizer 128 128 128;
#X msg 636 256 \; \$1-pitch-rec \$3 \; \$1-slope-rec \$4 \; \$1-noise-rec
\$5 \;;
#X floatatom 93 314 5 0 0 0 - - -;
#X connect 0 0 1 0;
#X connect 1 0 2 0;
#X connect 1 0 5 0;
#X connect 2 0 5 1;
#X connect 3 0 4 0;
#X connect 4 0 2 1;
#X connect 5 0 9 0;
#X connect 5 0 10 1;
#X connect 6 0 7 0;
#X connect 7 0 12 1;
#X connect 8 0 11 0;
#X connect 9 0 10 0;
#X connect 10 0 12 0;
#X connect 11 0 9 1;
#X connect 12 0 18 0;
#X connect 13 0 11 1;
#X connect 15 0 16 0;
#X connect 16 0 36 0;
#X connect 17 0 0 0;
#X connect 19 0 38 0;
#X connect 20 0 4 1;
#X connect 22 0 25 0;
#X connect 22 1 37 0;
#X connect 22 2 16 0;
#X connect 23 0 6 0;
#X connect 24 0 17 0;
#X connect 26 0 22 0;
#X connect 27 0 28 0;
#X connect 30 0 31 0;
#X connect 32 0 20 0;
#X connect 33 0 39 0;
#X connect 37 0 19 0;
#X coords 0 740 1 739 200 150 0;
