#N canvas 53 132 783 537 10;
#X declare -path abs/;
#X obj 102 162 loadbang;
#X obj 572 124 declare -path abs/;
#N canvas 0 23 123 169 poly 0;
#X obj 8 9 inlet bang;
#X obj 8 30 f 0;
#X obj 48 30 + 1;
#X obj 48 51 mod 2;
#X floatatom 8 101 5 0 0 0 - - -;
#X obj 8 121 outlet;
#X connect 0 0 1 0;
#X connect 1 0 2 0;
#X connect 1 0 4 0;
#X connect 2 0 3 0;
#X connect 3 0 1 1;
#X connect 4 0 5 0;
#X restore 23 306 pd poly 2;
#X obj 23 327 sel 0 1;
#X obj 23 447 outlet~;
#X obj 409 257 s \$0-doublestring;
#N canvas 0 162 750 634 pluck1 0;
#X obj 61 13 inlet bang;
#X obj 233 236 rpole~;
#X obj 296 29 / 127;
#X obj 296 91 -;
#X obj 357 440 -~;
#X obj 184 468 -~;
#X obj 184 582 outlet~;
#X obj 357 516 *~;
#X obj 372 465 r \$0-doublestring;
#X obj 372 486 lop~ 50;
#X obj 430 317 *~ 0.996;
#X obj 432 125 mtof~;
#X obj 432 104 +~;
#X obj 432 83 sig~;
#X obj 199 436 combdelay~;
#X obj 372 407 combdelay~;
#X obj 520 152 sig~;
#X obj 233 168 catch~ \$0-exciter1;
#X obj 184 387 string~ \$0;
#X obj 357 359 string~ \$0;
#N canvas 4 120 695 500 implement 0;
#X obj 159 15 inlet;
#X obj 159 36 t b f;
#X obj 195 63 s \$0-slider-pitch;
#X obj 144 277 noise~;
#X obj 144 408 *~;
#X obj 174 189 + 1;
#X obj 144 429 throw~ \$0-exciter1;
#X obj 159 323 line~;
#X obj 159 344 cos~;
#X obj 159 365 *~ 0.5;
#X obj 159 386 +~ 0.5;
#X obj 39 149 loadbang;
#X obj 159 209 f 5;
#X msg 159 302 -0.5 \, 0.5 \$1;
#X obj 174 147 / 127;
#X obj 174 168 * 19;
#X obj 174 126 r \$0-pick-rec;
#X connect 0 0 1 0;
#X connect 1 0 12 0;
#X connect 1 1 2 0;
#X connect 3 0 4 0;
#X connect 4 0 6 0;
#X connect 5 0 12 1;
#X connect 7 0 8 0;
#X connect 8 0 9 0;
#X connect 9 0 10 0;
#X connect 10 0 4 1;
#X connect 11 0 12 0;
#X connect 12 0 13 0;
#X connect 13 0 7 0;
#X connect 14 0 15 0;
#X connect 15 0 5 0;
#X connect 16 0 14 0;
#X restore 61 49 pd implement;
#X obj 296 70 swap 0.999;
#X obj 296 49 * 0.15;
#X obj 233 287 *~;
#X obj 248 267 * 0.5;
#X obj 432 62 max 20;
#X obj 520 131 / 127;
#X obj 296 8 r \$0-vel-rec;
#X obj 432 41 r \$0-pitch-rec;
#X obj 520 110 r \$0-pos-rec;
#X connect 0 0 20 0;
#X connect 1 0 23 0;
#X connect 2 0 24 0;
#X connect 2 0 22 0;
#X connect 3 0 1 1;
#X connect 4 0 7 0;
#X connect 5 0 6 0;
#X connect 7 0 6 0;
#X connect 8 0 9 0;
#X connect 9 0 7 1;
#X connect 10 0 15 1;
#X connect 10 0 19 1;
#X connect 11 0 10 0;
#X connect 11 0 14 1;
#X connect 11 0 18 1;
#X connect 12 0 11 0;
#X connect 13 0 12 0;
#X connect 14 0 5 1;
#X connect 15 0 4 1;
#X connect 16 0 14 2;
#X connect 16 0 15 2;
#X connect 17 0 1 0;
#X connect 18 0 5 0;
#X connect 18 0 14 0;
#X connect 19 0 4 0;
#X connect 19 0 15 0;
#X connect 21 0 3 0;
#X connect 21 1 3 1;
#X connect 22 0 21 0;
#X connect 23 0 19 0;
#X connect 23 0 18 0;
#X connect 24 0 23 1;
#X connect 25 0 13 0;
#X connect 26 0 16 0;
#X connect 27 0 2 0;
#X connect 28 0 25 0;
#X connect 29 0 26 0;
#X restore 23 349 pd pluck1;
#X obj 102 183 f \$0;
#N canvas 314 100 750 634 pluck2 0;
#X obj 61 13 inlet bang;
#X obj 233 236 rpole~;
#X obj 296 29 / 127;
#X obj 296 91 -;
#X obj 357 440 -~;
#X obj 184 468 -~;
#X obj 184 582 outlet~;
#X obj 357 516 *~;
#X obj 372 465 r \$0-doublestring;
#X obj 372 486 lop~ 50;
#X obj 430 317 *~ 0.996;
#X obj 432 125 mtof~;
#X obj 432 104 +~;
#X obj 432 83 sig~;
#X obj 199 436 combdelay~;
#X obj 372 407 combdelay~;
#X obj 520 152 sig~;
#X obj 184 387 string~ \$0;
#X obj 357 359 string~ \$0;
#N canvas 4 120 695 500 implement 0;
#X obj 159 15 inlet;
#X obj 159 36 t b f;
#X obj 195 63 s \$0-slider-pitch;
#X obj 144 277 noise~;
#X obj 144 408 *~;
#X obj 174 189 + 1;
#X obj 159 323 line~;
#X obj 159 344 cos~;
#X obj 159 365 *~ 0.5;
#X obj 159 386 +~ 0.5;
#X obj 39 149 loadbang;
#X obj 159 209 f 5;
#X msg 159 302 -0.5 \, 0.5 \$1;
#X obj 174 147 / 127;
#X obj 174 168 * 19;
#X obj 174 126 r \$0-pick-send;
#X obj 144 429 throw~ \$0-exciter2;
#X connect 0 0 1 0;
#X connect 1 0 11 0;
#X connect 1 1 2 0;
#X connect 3 0 4 0;
#X connect 4 0 16 0;
#X connect 5 0 11 1;
#X connect 6 0 7 0;
#X connect 7 0 8 0;
#X connect 8 0 9 0;
#X connect 9 0 4 1;
#X connect 10 0 11 0;
#X connect 11 0 12 0;
#X connect 12 0 6 0;
#X connect 13 0 14 0;
#X connect 14 0 5 0;
#X connect 15 0 13 0;
#X restore 61 49 pd implement;
#X obj 296 70 swap 0.999;
#X obj 296 49 * 0.15;
#X obj 233 287 *~;
#X obj 248 267 * 0.5;
#X obj 432 62 max 20;
#X obj 520 131 / 127;
#X obj 233 168 catch~ \$0-exciter2;
#X obj 296 8 r \$0-vel-rec;
#X obj 432 41 r \$0-pitch-rec;
#X obj 520 110 r \$0-pos-rec;
#X connect 0 0 19 0;
#X connect 1 0 22 0;
#X connect 2 0 23 0;
#X connect 2 0 21 0;
#X connect 3 0 1 1;
#X connect 4 0 7 0;
#X connect 5 0 6 0;
#X connect 7 0 6 0;
#X connect 8 0 9 0;
#X connect 9 0 7 1;
#X connect 10 0 15 1;
#X connect 10 0 18 1;
#X connect 11 0 10 0;
#X connect 11 0 14 1;
#X connect 11 0 17 1;
#X connect 12 0 11 0;
#X connect 13 0 12 0;
#X connect 14 0 5 1;
#X connect 15 0 4 1;
#X connect 16 0 14 2;
#X connect 16 0 15 2;
#X connect 17 0 5 0;
#X connect 17 0 14 0;
#X connect 18 0 4 0;
#X connect 18 0 15 0;
#X connect 20 0 3 0;
#X connect 20 1 3 1;
#X connect 21 0 20 0;
#X connect 22 0 17 0;
#X connect 22 0 18 0;
#X connect 23 0 22 1;
#X connect 24 0 13 0;
#X connect 25 0 16 0;
#X connect 26 0 1 0;
#X connect 27 0 2 0;
#X connect 28 0 24 0;
#X connect 29 0 25 0;
#X restore 33 369 pd pluck2;
#X msg 102 204 \; \$1-pitch-rec 60 \; \$1-vel-rec 100 \; \$1-pick-rec
27 \; \$1-pos-rec 64 \; \$1-damp-rec 127 \;;
#X obj 141 325 randomizer 127 127 127 127 127;
#X obj 141 346 list prepend \$0;
#X msg 141 367 \; \$1-pitch-rec \$2 \; \$1-vel-rec \$3 \; \$1-pick-rec
\$4 \; \$1-pos-rec \$5 \; \$1-damp-rec \$6 \;;
#X obj 23 21 inlet bang or pitch;
#X obj 62 78 s \$0-pitch-rec;
#X obj 339 20 inlet vel;
#X obj 339 41 s \$0-vel-rec;
#X obj 439 20 inlet pick;
#X obj 439 41 s \$0-pick-rec;
#X obj 539 20 inlet pos;
#X obj 539 41 s \$0-pos-rec;
#X obj 639 20 inlet damp;
#X obj 639 41 s \$0-damp-rec;
#X msg 376 186 1;
#X msg 409 185 0;
#X obj 23 42 route bang float init rand double single;
#X obj 409 129 loadbang;
#X obj 409 226 tgl 15 0 empty empty empty 17 7 0 10 -262144 -1 -1 1
1;
#X connect 0 0 7 0;
#X connect 2 0 3 0;
#X connect 3 0 6 0;
#X connect 3 1 8 0;
#X connect 6 0 4 0;
#X connect 7 0 9 0;
#X connect 8 0 4 0;
#X connect 10 0 11 0;
#X connect 11 0 12 0;
#X connect 13 0 25 0;
#X connect 15 0 16 0;
#X connect 17 0 18 0;
#X connect 19 0 20 0;
#X connect 21 0 22 0;
#X connect 23 0 27 0;
#X connect 24 0 27 0;
#X connect 25 0 2 0;
#X connect 25 1 14 0;
#X connect 25 2 7 0;
#X connect 25 3 10 0;
#X connect 25 4 23 0;
#X connect 25 5 24 0;
#X connect 26 0 23 0;
#X connect 27 0 5 0;
#X coords 0 537 1 536 190 160 0;
