#N canvas 479 51 801 785 10;
#X declare -path presets/;
#X declare -path abs/;
#X obj 113 219 hsl 128 15 0 127 0 0 \$0-particles-send \$0-particles-rec
PARTICLES 0 8 0 10 -1 -262144 -262144 6400 1;
#X obj 113 168 hsl 128 15 0 127 0 0 \$0-vel-send \$0-vel-rec VEL 0
8 0 10 -1 -262144 -262144 12700 1;
#X obj 102 112 bng 15 50 50 0 empty empty empty 17 7 0 10 -1 -228856
-1;
#X obj 143 477 outlet~;
#X obj 176 113 cnv 15 5 5 empty empty SHAKE 5 9 0 14 -262144 -1 0;
#X obj 113 151 hsl 128 15 0 127 0 0 empty \$0-pitch-rec PITCH 0 8 0
10 -1 -262144 -262144 6000 1;
#X obj 245 151 nbx 3 15 0 127 0 0 empty empty empty 0 -8 0 10 -1 -262144
-1 60 256;
#X obj 23 42 threshold~ 0.9 0 0.9 0;
#X obj 23 21 inlet~;
#X obj 110 134 hradio 15 1 0 8 empty \$0-presets-rec PRESETS 1 8 0
10 -1 -262144 -262144 3;
#N canvas 555 358 608 466 presets 0;
#X obj 48 45 inlet;
#X obj 175 357 qlist;
#X obj 159 14 loadbang;
#X floatatom 48 66 5 0 0 0 - - -;
#X obj 48 86 sel 0 1 2 3 4 5 6 7;
#X msg 48 107 vibraphone;
#X msg 78 167 coffeemug;
#X obj 42 256 symbol;
#X obj 42 277 makefilename %s.txt;
#X msg 42 298 read \$1 \, bang;
#X msg 58 127 marimba;
#X msg 68 147 agogo;
#X msg 128 107 wood1;
#X msg 138 127 wood2;
#X msg 148 147 reso;
#X msg 158 167 marimba2;
#X obj 375 46 r ###;
#X connect 0 0 3 0;
#X connect 3 0 4 0;
#X connect 4 0 5 0;
#X connect 4 1 10 0;
#X connect 4 2 11 0;
#X connect 4 3 6 0;
#X connect 4 4 12 0;
#X connect 4 5 13 0;
#X connect 4 6 14 0;
#X connect 4 7 15 0;
#X connect 5 0 7 0;
#X connect 6 0 7 0;
#X connect 7 0 8 0;
#X connect 8 0 9 0;
#X connect 9 0 1 0;
#X connect 10 0 7 0;
#X connect 11 0 7 0;
#X connect 12 0 7 0;
#X connect 13 0 7 0;
#X connect 14 0 7 0;
#X connect 15 0 7 0;
#X restore 481 271 pd presets;
#X obj 100 100 cnv 5 25 10 empty empty TRIG 1 5 0 8 -1 -262144 0;
#X obj 265 100 cnv 5 25 10 empty empty PITCH 0 5 0 8 -1 -262144 0;
#X obj 221 33 inlet~ pitch;
#X obj 12 270 s \$0-pitch;
#N canvas 333 440 631 395 implement 0;
#X obj 37 21 inlet select;
#X msg 37 128 label IMPULSE;
#X obj 37 92 sel 0 1 2;
#X msg 47 148 label NOISE;
#X msg 57 168 label STICK;
#N canvas 0 22 450 278 (subpatch) 0;
#X array \$0-residual 22558 float 0;
#X coords 0 1 22557 -1 100 100 1 0 0;
#X restore 271 35 graph;
#X obj 271 140 loadbang;
#X obj 271 224 soundfiler;
#X obj 271 245 / 44.1;
#X floatatom 271 266 5 0 0 0 - - -;
#X obj 271 161 f \$0;
#X obj 271 182 makefilename %d-residual;
#X msg 271 203 read -resize audio/chopstick.aiff \$1;
#X obj 37 219 s \$0-implement-label;
#X obj 37 42 s \$0-implement;
#X connect 0 0 2 0;
#X connect 0 0 14 0;
#X connect 1 0 13 0;
#X connect 2 0 1 0;
#X connect 2 1 3 0;
#X connect 2 2 4 0;
#X connect 3 0 13 0;
#X connect 4 0 13 0;
#X connect 6 0 10 0;
#X connect 7 0 8 0;
#X connect 8 0 9 0;
#X connect 10 0 11 0;
#X connect 11 0 12 0;
#X connect 12 0 7 0;
#X restore 339 486 pd implement;
#X obj 113 202 hsl 128 15 0 127 0 0 empty \$0-size-rec SIZE 0 8 0 10
-1 -262144 -262144 6400 1;
#X obj 589 28 declare -path presets/;
#X obj 221 54 snapshot~;
#X obj 378 217 s \$0-size;
#X obj 23 63 t b b;
#X obj 221 75 s \$0-inlet-pitch;
#X obj 86 271 r \$0-inlet-pitch;
#X obj 589 48 declare -path abs/;
#X obj 100 240 cnv 5 25 10 empty empty OUT 1 5 0 8 -1 -262144 0;
#X obj 238 375 hsl 128 15 0 127 0 0 empty \$0-mallet-rec MALLET 0 8
0 10 -1 -262144 -262144 12700 1;
#X obj 418 22 loadbang;
#X obj 418 43 f \$0;
#X obj 113 185 hsl 128 15 0 127 0 0 \$0-shake-send \$0-shake-rec SHAKE
0 8 0 10 -1 -262144 -262144 0 1;
#X msg 418 64 \; \$1-presets-rec 3 \; \$1-pitch-rec 60 \; \$1-vel-rec
127 \; \$1-mallet-rec 127 \; \$1-size-rec 64 \; \$1-particles-rec 64
\;;
#X obj 380 20 bng 15 250 50 0 empty empty empty 17 7 0 10 -262144 -1
-1;
#X obj 293 266 r \$0-particles-send;
#N canvas 502 200 604 595 shake-algorithm 0;
#X obj 119 27 r \$0-shake-send;
#X obj 119 48 / 127;
#X obj 134 87 r \$0-vel-send;
#X obj 134 108 / 127;
#X obj 119 130 * 1;
#X obj 119 181 moses 0.001;
#X text 198 181 < min energy;
#X msg 119 202 0;
#X obj 334 37 loadbang;
#X msg 334 58 1;
#X obj 334 79 metro 1;
#X obj 334 100 random 1024;
#X obj 334 186 moses 64;
#X obj 379 122 r \$0-particles-send;
#X msg 334 207 bang;
#X obj 353 278 del 1;
#X obj 61 154 f;
#X obj 119 233 * 0.999;
#X obj 119 304 * 0;
#X msg 134 269 1;
#X msg 164 269 0;
#X obj 119 345 + 0;
#X obj 134 324 f;
#X obj 119 366 t f f;
#X obj 196 396 * 0.95;
#X text 240 397 < sound decay;
#N canvas 104 80 626 599 particles 0;
#X obj 256 84 inlet bang;
#X obj 256 150 pack f f f;
#X obj 61 412 outlet~;
#X msg 256 106 \$1 1;
#X obj 61 194 particle 2800 0.995;
#X obj 61 216 particle 2240 0.995;
#X obj 61 238 particle 3360 0.995;
#X obj 61 260 particle 2800 0.995;
#X obj 61 326 particle 2800 0.995;
#X obj 61 282 particle 2240 0.995;
#X obj 61 348 particle 2240 0.995;
#X obj 256 172 route 1 2 3 4 5 6 7 8 9;
#X obj 61 304 particle 3360 0.995;
#X obj 61 368 particle 3360 0.995;
#X obj 256 128 poly 9 1;
#X connect 0 0 3 0;
#X connect 1 0 11 0;
#X connect 3 0 14 0;
#X connect 4 0 5 0;
#X connect 5 0 6 0;
#X connect 6 0 7 0;
#X connect 7 0 9 0;
#X connect 8 0 10 0;
#X connect 9 0 12 0;
#X connect 10 0 13 0;
#X connect 11 0 4 1;
#X connect 11 1 5 1;
#X connect 11 2 6 1;
#X connect 11 3 7 1;
#X connect 11 4 9 1;
#X connect 11 5 12 1;
#X connect 11 6 8 1;
#X connect 11 7 10 1;
#X connect 11 8 13 1;
#X connect 12 0 8 0;
#X connect 13 0 2 0;
#X connect 14 0 1 0;
#X connect 14 1 1 1;
#X connect 14 2 1 2;
#X restore 119 421 pd particles;
#X obj 119 442 outlet~;
#X floatatom 79 90 5 0 0 0 - - -;
#X obj 119 69 * 0.3;
#X obj 238 15 bng 15 250 50 0 empty empty empty 17 7 0 10 -262144 -1
-1;
#N canvas 0 23 450 300 shake 0;
#X obj 109 36 inlet bang;
#X obj 109 58 bng 15 250 50 0 empty empty empty 17 7 0 10 -262144 -1
-1;
#X obj 109 179 outlet;
#X msg 138 149 0;
#X obj 138 127 del 500;
#X msg 109 157 0.1;
#X connect 0 0 1 0;
#X connect 1 0 5 0;
#X connect 1 0 4 0;
#X connect 3 0 2 0;
#X connect 4 0 3 0;
#X connect 5 0 2 0;
#X restore 238 35 pd shake;
#X obj 334 228 t b b b;
#X obj 379 143 max 2;
#X connect 0 0 1 0;
#X connect 1 0 29 0;
#X connect 2 0 3 0;
#X connect 3 0 4 1;
#X connect 4 0 5 0;
#X connect 5 0 7 0;
#X connect 5 1 17 0;
#X connect 7 0 17 0;
#X connect 8 0 9 0;
#X connect 9 0 10 0;
#X connect 10 0 11 0;
#X connect 11 0 12 0;
#X connect 12 0 14 0;
#X connect 13 0 33 0;
#X connect 14 0 32 0;
#X connect 15 0 20 0;
#X connect 16 0 5 0;
#X connect 17 0 16 1;
#X connect 17 0 18 0;
#X connect 18 0 21 0;
#X connect 19 0 18 1;
#X connect 20 0 18 1;
#X connect 21 0 23 0;
#X connect 22 0 21 1;
#X connect 23 0 26 0;
#X connect 23 1 24 0;
#X connect 24 0 22 1;
#X connect 26 0 27 0;
#X connect 29 0 4 0;
#X connect 29 0 28 0;
#X connect 30 0 31 0;
#X connect 31 0 4 0;
#X connect 32 0 22 0;
#X connect 32 1 16 0;
#X connect 32 1 15 0;
#X connect 32 2 19 0;
#X connect 33 0 12 1;
#X restore 143 434 pd shake-algorithm;
#X connect 5 0 6 0;
#X connect 5 0 14 0;
#X connect 7 0 20 0;
#X connect 8 0 7 0;
#X connect 9 0 10 0;
#X connect 13 0 18 0;
#X connect 16 0 19 0;
#X connect 18 0 21 0;
#X connect 20 0 2 0;
#X connect 20 1 18 0;
#X connect 25 0 15 0;
#X connect 26 0 27 0;
#X connect 27 0 29 0;
#X connect 30 0 27 0;
#X connect 32 0 3 0;
#X coords 0 -1 1 1 190 150 2 100 100;
